:FULLY-SPECIFIED
:FORCE-ALL-JOINTS-BE-3DOF
:DEGREES
951
root 1.09287 15.2728 32.7444 6.86191 -3.0933 364.425
lfemur 7.11007 0.952467 4.66666
ltibia -5.30092e-14 0 0
lfoot -28.5578 -13.7885 0
ltoes -32.2273 0 0
rfemur -31.9451 -16.471 -6.67502
rtibia 49.5957 0 0
rfoot -21.3617 4.66608 0
rtoes -42.196 0 0
lowerback -2.31229 -0.739015 1.18031
upperback -1.23937 -1.00619 -6.71307
thorax -0.123849 -0.540266 -7.69319
lowerneck -6.30658 0.989884 5.2251
upperneck 0.584918 0.843654 3.23995
head 1.24679 0.501125 0.156074
lclavicle -1.66316e-14 -3.92268e-14 0
lhumerus -59.1949 -43.6228 112.531
lradius 55.4563 0 0
lwrist 25.6997 0 0
lhand 39.4074 24.0736 0
lfingers 7.12502 0 0
lthumb 61.8973 35.657 0
rclavicle -1.66316e-14 -3.92268e-14 0
rhumerus 2.8655 -28.6798 1.61021
rradius 29.0427 0 0
rwrist -13.643 0 0
rhand -35.2179 -50.0407 0
rfingers 7.12502 0 0
rthumb -8.35491 -799.851 0
952
root 1.07916 15.2623 32.7356 6.80588 -3.33101 364.344
lfemur 7.31067 1.14695 4.78224
ltibia -4.53229e-14 0 0
lfoot -28.684 -13.4763 0
ltoes -32.4794 0 0
rfemur -32.164 -16.3973 -6.49609
rtibia 49.7995 0 0
rfoot -21.5476 4.71355 0
rtoes -42.1275 0 0
lowerback -2.30147 -0.806819 1.19176
upperback -1.1871 -1.0955 -6.61764
thorax -0.0865042 -0.583195 -7.59865
lowerneck -6.21871 1.11463 5.33841
upperneck 0.547601 1.01054 3.178
head 1.22241 0.581589 0.122397
lclavicle -1.54058e-14 -2.38541e-14 0
lhumerus -59.2223 -43.6746 112.706
lradius 55.4468 0 0
lwrist 25.9282 0 0
lhand 39.0532 24.1146 0
lfingers 7.12502 0 0
lthumb 61.6003 36.0555 0
rclavicle -1.54058e-14 -2.38541e-14 0
rhumerus 3.28925 -28.0174 1.71049
rradius 29.0651 0 0
rwrist -13.2671 0 0
rhand -34.7296 -50.0284 0
rfingers 7.12502 0 0
rthumb -7.88362 -799.856 0
953
root 1.06546 15.2518 32.7268 6.74985 -3.56873 364.263
lfemur 7.51128 1.34144 4.89781
ltibia -3.76366e-14 0 0
lfoot -28.8102 -13.164 0
ltoes -32.7315 0 0
rfemur -32.3829 -16.3236 -6.31716
rtibia 50.0032 0 0
rfoot -21.7336 4.76102 0
rtoes -42.059 0 0
lowerback -2.29066 -0.874623 1.20321
upperback -1.13483 -1.1848 -6.52222
thorax -0.0491593 -0.626124 -7.50411
lowerneck -6.13085 1.23937 5.45172
upperneck 0.510283 1.17742 3.11604
head 1.19804 0.662054 0.0887211
lclavicle -1.418e-14 -8.48147e-15 0
lhumerus -59.2498 -43.7264 112.88
lradius 55.4373 0 0
lwrist 26.1568 0 0
lhand 38.6989 24.1557 0
lfingers 7.12502 0 0
lthumb 61.3033 36.4541 0
rclavicle -1.418e-14 -8.48147e-15 0
rhumerus 3.713 -27.3549 1.81077
rradius 29.0875 0 0
rwrist -12.8911 0 0
rhand -34.2413 -50.016 0
rfingers 7.12502 0 0
rthumb -7.41232 -799.861 0
954
root 1.05175 15.2412 32.7181 6.69381 -3.80645 364.181
lfemur 7.71188 1.53592 5.01338
ltibia -2.99502e-14 0 0
lfoot -28.9364 -12.8518 0
ltoes -32.9835 0 0
rfemur -32.6017 -16.2499 -6.13823
rtibia 50.2069 0 0
rfoot -21.9196 4.80848 0
rtoes -41.9906 0 0
lowerback -2.27984 -0.942426 1.21467
upperback -1.08257 -1.27411 -6.4268
thorax -0.0118144 -0.669054 -7.40956
lowerneck -6.04298 1.36411 5.56503
upperneck 0.472966 1.3443 3.05408
head 1.17366 0.742519 0.0550448
lclavicle -1.29541e-14 6.89122e-15 0
lhumerus -59.2773 -43.7783 113.054
lradius 55.4278 0 0
lwrist 26.3853 0 0
lhand 38.3447 24.1968 0
lfingers 7.12502 0 0
lthumb 61.0064 36.8526 0
rclavicle -1.29541e-14 6.89122e-15 0
rhumerus 4.13674 -26.6925 1.91106
rradius 29.1098 0 0
rwrist -12.5152 0 0
rhand -33.753 -50.0037 0
rfingers 7.12502 0 0
rthumb -6.94102 -799.867 0
955
root 1.03805 15.2307 32.7093 6.63778 -4.04417 364.1
lfemur 7.91248 1.73041 5.12896
ltibia -2.22639e-14 0 0
lfoot -29.0626 -12.5395 0
ltoes -33.2356 0 0
rfemur -32.8206 -16.1762 -5.9593
rtibia 50.4106 0 0
rfoot -22.1055 4.85595 0
rtoes -41.9221 0 0
lowerback -2.26902 -1.01023 1.22612
upperback -1.0303 -1.36341 -6.33137
thorax 0.0255305 -0.711983 -7.31502
lowerneck -5.95512 1.48885 5.67834
upperneck 0.435649 1.51118 2.99213
head 1.14929 0.822984 0.0213686
lclavicle -1.17283e-14 2.22639e-14 0
lhumerus -59.3048 -43.8301 113.228
lradius 55.4183 0 0
lwrist 26.6138 0 0
lhand 37.9904 24.2379 0
lfingers 7.12502 0 0
lthumb 60.7094 37.2512 0
rclavicle -1.17283e-14 2.22639e-14 0
rhumerus 4.56049 -26.0301 2.01134
rradius 29.1322 0 0
rwrist -12.1393 0 0
rhand -33.2647 -49.9913 0
rfingers 7.12502 0 0
rthumb -6.46972 -799.872 0
956
root 1.03425 15.2205 32.7003 6.55817 -4.27238 364.128
lfemur 8.08087 1.89722 5.13208
ltibia -1.74931e-14 0 0
lfoot -29.1445 -12.5322 0
ltoes -33.2302 0 0
rfemur -33.0001 -16.1982 -5.95122
rtibia 50.5748 0 0
rfoot -22.2523 5.0809 0
rtoes -41.8555 0 0
lowerback -2.15875 -0.968587 1.13022
upperback -1.04202 -1.30949 -6.31924
thorax -0.0390676 -0.685793 -7.24328
lowerneck -5.95841 1.4628 5.69694
upperneck 0.439352 1.47225 3.09388
head 1.14985 0.805432 0.0488383
lclavicle -1.00386e-14 2.06736e-14 0
lhumerus -59.2669 -43.943 113.395
lradius 55.3608 0 0
lwrist 26.1493 0 0
lhand 38.1793 24.0159 0
lfingers 7.12502 0 0
lthumb 60.8686 36.8445 0
rclavicle -1.00386e-14 2.06736e-14 0
rhumerus 4.67727 -26.0411 1.86443
rradius 29.033 0 0
rwrist -12.2424 0 0
rhand -33.1268 -49.6516 0
rfingers 7.12502 0 0
rthumb -6.33657 -799.536 0
957
root 1.03044 15.2103 32.6913 6.47857 -4.50058 364.156
lfemur 8.24927 2.06403 5.13519
ltibia -1.27222e-14 0 0
lfoot -29.2263 -12.5249 0
ltoes -33.2248 0 0
rfemur -33.1795 -16.2202 -5.94314
rtibia 50.7389 0 0
rfoot -22.3991 5.30586 0
rtoes -41.7888 0 0
lowerback -2.04848 -0.926944 1.03432
upperback -1.05375 -1.25557 -6.30711
thorax -0.103666 -0.659602 -7.17154
lowerneck -5.9617 1.43674 5.71554
upperneck 0.443055 1.43332 3.19564
head 1.15041 0.78788 0.0763081
lclavicle -8.34896e-15 1.90833e-14 0
lhumerus -59.2289 -44.056 113.562
lradius 55.3033 0 0
lwrist 25.6847 0 0
lhand 38.3681 23.7939 0
lfingers 7.12502 0 0
lthumb 61.0279 36.4378 0
rclavicle -8.34896e-15 1.90833e-14 0
rhumerus 4.79404 -26.0521 1.71752
rradius 28.9339 0 0
rwrist -12.3455 0 0
rhand -32.9889 -49.3119 0
rfingers 7.12502 0 0
rthumb -6.20343 -799.2 0
958
root 1.02664 15.2001 32.6822 6.39896 -4.72879 364.185
lfemur 8.41766 2.23084 5.1383
ltibia -7.95139e-15 0 0
lfoot -29.3082 -12.5175 0
ltoes -33.2194 0 0
rfemur -33.359 -16.2422 -5.93506
rtibia 50.9031 0 0
rfoot -22.5459 5.53081 0
rtoes -41.7222 0 0
lowerback -1.93822 -0.885301 0.938426
upperback -1.06547 -1.20165 -6.29498
thorax -0.168264 -0.633412 -7.0998
lowerneck -5.965 1.41069 5.73414
upperneck 0.446759 1.39439 3.29739
head 1.15097 0.770328 0.103778
lclavicle -6.65929e-15 1.7493e-14 0
lhumerus -59.191 -44.169 113.729
lradius 55.2458 0 0
lwrist 25.2202 0 0
lhand 38.557 23.5719 0
lfingers 7.12502 0 0
lthumb 61.1871 36.0311 0
rclavicle -6.65929e-15 1.7493e-14 0
rhumerus 4.91082 -26.0632 1.57061
rradius 28.8347 0 0
rwrist -12.4486 0 0
rhand -32.8509 -48.9721 0
rfingers 7.12502 0 0
rthumb -6.07029 -798.864 0
959
root 1.02284 15.1898 32.6732 6.31935 -4.957 364.213
lfemur 8.58605 2.39765 5.14142
ltibia -3.18056e-15 0 0
lfoot -29.3901 -12.5102 0
ltoes -33.214 0 0
rfemur -33.5384 -16.2642 -5.92698
rtibia 51.0673 0 0
rfoot -22.6926 5.75576 0
rtoes -41.6556 0 0
lowerback -1.82795 -0.843659 0.842528
upperback -1.07719 -1.14772 -6.28285
thorax -0.232862 -0.607221 -7.02805
lowerneck -5.96829 1.38464 5.75274
upperneck 0.450462 1.35547 3.39914
head 1.15154 0.752776 0.131248
lclavicle -4.96962e-15 1.59028e-14 0
lhumerus -59.153 -44.2819 113.896
lradius 55.1883 0 0
lwrist 24.7557 0 0
lhand 38.7459 23.3499 0
lfingers 7.12502 0 0
lthumb 61.3463 35.6245 0
rclavicle -4.96962e-15 1.59028e-14 0
rhumerus 5.0276 -26.0742 1.42369
rradius 28.7355 0 0
rwrist -12.5517 0 0
rhand -32.713 -48.6324 0
rfingers 7.12502 0 0
rthumb -5.93714 -798.529 0
960
root 1.01903 15.1796 32.6642 6.23975 -5.1852 364.241
lfemur 8.75445 2.56446 5.14454
ltibia 1.59028e-15 0 0
lfoot -29.4719 -12.5029 0
ltoes -33.2086 0 0
rfemur -33.7178 -16.2862 -5.9189
rtibia 51.2314 0 0
rfoot -22.8394 5.98072 0
rtoes -41.5889 0 0
lowerback -1.71768 -0.802016 0.74663
upperback -1.08892 -1.0938 -6.27072
thorax -0.29746 -0.581031 -6.95631
lowerneck -5.97158 1.35858 5.77134
upperneck 0.454165 1.31654 3.5009
head 1.1521 0.735224 0.158717
lclavicle -3.27995e-15 1.43125e-14 0
lhumerus -59.1151 -44.3949 114.063
lradius 55.1308 0 0
lwrist 24.2911 0 0
lhand 38.9347 23.1279 0
lfingers 7.12502 0 0
lthumb 61.5056 35.2178 0
rclavicle -3.27995e-15 1.43125e-14 0
rhumerus 5.14437 -26.0852 1.27678
rradius 28.6364 0 0
rwrist -12.6548 0 0
rhand -32.5751 -48.2927 0
rfingers 7.12502 0 0
rthumb -5.80399 -798.193 0
961
root 1.01523 15.1694 32.6552 6.16014 -5.41341 364.269
lfemur 8.92284 2.73127 5.14765
ltibia 6.36111e-15 0 0
lfoot -29.5538 -12.4956 0
ltoes -33.2032 0 0
rfemur -33.8973 -16.3082 -5.91082
rtibia 51.3956 0 0
rfoot -22.9862 6.20567 0
rtoes -41.5223 0 0
lowerback -1.60741 -0.760373 0.650732
upperback -1.10064 -1.03988 -6.25859
thorax -0.362058 -0.55484 -6.88457
lowerneck -5.97487 1.33253 5.78994
upperneck 0.457868 1.27761 3.60265
head 1.15266 0.717672 0.186187
lclavicle -1.59028e-15 1.27222e-14 0
lhumerus -59.0771 -44.5078 114.23
lradius 55.0733 0 0
lwrist 23.8266 0 0
lhand 39.1236 22.9059 0
lfingers 7.12502 0 0
lthumb 61.6648 34.8111 0
rclavicle -1.59028e-15 1.27222e-14 0
rhumerus 5.26115 -26.0962 1.12987
rradius 28.5372 0 0
rwrist -12.7579 0 0
rhand -32.4372 -47.953 0
rfingers 7.12502 0 0
rthumb -5.67085 -797.857 0
962
root 1.01991 15.163 32.6486 6.16236 -5.45275 364.266
lfemur 8.91938 2.76735 5.16072
ltibia 1.06018e-14 0 0
lfoot -29.6315 -12.4735 0
ltoes -33.2126 0 0
rfemur -33.9951 -16.3488 -5.90982
rtibia 51.4715 0 0
rfoot -23.0083 6.30819 0
rtoes -41.441 0 0
lowerback -1.61319 -0.721089 0.666909
upperback -1.09952 -0.987053 -6.24083
thorax -0.351009 -0.527948 -6.87444
lowerneck -6.02296 1.32062 5.78444
upperneck 0.399392 1.26187 3.57107
head 1.14233 0.707852 0.176911
lclavicle 3.09773e-15 1.80231e-14 0
lhumerus -58.9607 -44.39 114.228
lradius 55.0222 0 0
lwrist 24.0202 0 0
lhand 38.8722 23.2541 0
lfingers 7.12502 0 0
lthumb 61.4524 35.4024 0
rclavicle 3.09773e-15 1.80231e-14 0
rhumerus 5.13017 -26.117 1.12501
rradius 28.5278 0 0
rwrist -12.7571 0 0
rhand -32.3688 -47.776 0
rfingers 7.12502 0 0
rthumb -5.60483 -797.682 0
963
root 1.0246 15.1566 32.6419 6.16459 -5.49209 364.264
lfemur 8.91593 2.80342 5.17379
ltibia 1.48426e-14 0 0
lfoot -29.7092 -12.4514 0
ltoes -33.2221 0 0
rfemur -34.0929 -16.3894 -5.90881
rtibia 51.5474 0 0
rfoot -23.0304 6.41071 0
rtoes -41.3597 0 0
lowerback -1.61898 -0.681806 0.683086
upperback -1.09841 -0.934226 -6.22306
thorax -0.33996 -0.501056 -6.8643
lowerneck -6.07105 1.3087 5.77894
upperneck 0.340915 1.24612 3.5395
head 1.132 0.698031 0.167635
lclavicle 7.78575e-15 2.33241e-14 0
lhumerus -58.8443 -44.2721 114.225
lradius 54.9711 0 0
lwrist 24.2137 0 0
lhand 38.6208 23.6023 0
lfingers 7.12502 0 0
lthumb 61.2401 35.9936 0
rclavicle 7.78575e-15 2.33241e-14 0
rhumerus 4.99919 -26.1377 1.12014
rradius 28.5184 0 0
rwrist -12.7562 0 0
rhand -32.3005 -47.5991 0
rfingers 7.12502 0 0
rthumb -5.53882 -797.507 0
964
root 1.02928 15.1502 32.6352 6.16681 -5.53144 364.261
lfemur 8.91247 2.8395 5.18685
ltibia 1.90833e-14 0 0
lfoot -29.7869 -12.4292 0
ltoes -33.2315 0 0
rfemur -34.1907 -16.43 -5.90781
rtibia 51.6232 0 0
rfoot -23.0526 6.51323 0
rtoes -41.2784 0 0
lowerback -1.62477 -0.642522 0.699264
upperback -1.09729 -0.881399 -6.2053
thorax -0.328912 -0.474163 -6.85417
lowerneck -6.11913 1.29679 5.77344
upperneck 0.282438 1.23037 3.50793
head 1.12167 0.688211 0.158359
lclavicle 1.24738e-14 2.8625e-14 0
lhumerus -58.7279 -44.1543 114.222
lradius 54.92 0 0
lwrist 24.4073 0 0
lhand 38.3694 23.9505 0
lfingers 7.12502 0 0
lthumb 61.0277 36.5849 0
rclavicle 1.24738e-14 2.8625e-14 0
rhumerus 4.86821 -26.1585 1.11528
rradius 28.5089 0 0
rwrist -12.7554 0 0
rhand -32.2321 -47.4221 0
rfingers 7.12502 0 0
rthumb -5.4728 -797.332 0
